<svg width="16" height="20" viewBox="0 0 16 20" fill="none" xmlns="http://www.w3.org/2000/svg">
<path d="M16 2.25H2.19819e-05L0 2C0 1.05719 0 0.585786 0.292893 0.292893C0.585786 0 1.05719 0 2 0H14C14.9428 0 15.4142 0 15.7071 0.292893C16 0.585786 16 1.05719 16 2L16 2.25Z" fill="#1C274C"/>
<path d="M12.1716 6.82843C12.0094 6.99057 11.87 7.12998 11.75 7.25475V7.25H4.25V7.25475C4.12999 7.12999 3.99061 6.99061 3.8285 6.8285L0.75 3.75H15.25L12.1716 6.82843Z" fill="#1C274C"/>
<path fill-rule="evenodd" clip-rule="evenodd" d="M5 9.65685V17C5 17.9319 5 18.3978 5.15224 18.7654C5.35523 19.2554 5.74458 19.6448 6.23463 19.8478C6.60218 20 7.06812 20 8 20C8.93188 20 9.39782 20 9.76537 19.8478C10.2554 19.6448 10.6448 19.2554 10.8478 18.7654C11 18.3978 11 17.9319 11 17V9.65685C11 9.27954 11 8.9893 11.015 8.75H4.98503C5 8.9893 5 9.27954 5 9.65685ZM8.75 11C8.75 10.5858 8.41421 10.25 8 10.25C7.58579 10.25 7.25 10.5858 7.25 11V13C7.25 13.4142 7.58579 13.75 8 13.75C8.41421 13.75 8.75 13.4142 8.75 13V11Z" fill="#1C274C"/>
</svg>
