<svg width="16" height="21" viewBox="0 0 16 21" fill="none" xmlns="http://www.w3.org/2000/svg">
<path d="M8.75 1C8.75 0.585786 8.41421 0.25 8 0.25C7.58579 0.25 7.25 0.585786 7.25 1V4C7.25 4.41421 7.58579 4.75 8 4.75C8.41421 4.75 8.75 4.41421 8.75 4V1Z" fill="#1C274C"/>
<path d="M2.53033 1.46967C2.23744 1.17678 1.76256 1.17678 1.46967 1.46967C1.17678 1.76256 1.17678 2.23744 1.46967 2.53033L3.46967 4.53033C3.76256 4.82322 4.23744 4.82322 4.53033 4.53033C4.82322 4.23744 4.82322 3.76256 4.53033 3.46967L2.53033 1.46967Z" fill="#1C274C"/>
<path d="M14.5303 1.46967C14.2374 1.17678 13.7626 1.17678 13.4697 1.46967L11.4697 3.46967C11.1768 3.76256 11.1768 4.23744 11.4697 4.53033C11.7626 4.82322 12.2374 4.82322 12.5303 4.53033L14.5303 2.53033C14.8232 2.23744 14.8232 1.76256 14.5303 1.46967Z" fill="#1C274C"/>
<path d="M16 9L16 9.25H2.19819e-05L0 9C0 8.05719 0 7.58579 0.292893 7.29289C0.585786 7 1.05719 7 2 7H14C14.9428 7 15.4142 7 15.7071 7.29289C16 7.58579 16 8.05719 16 9Z" fill="#1C274C"/>
<path d="M12.1716 13.8284C12.0094 13.9906 11.87 14.13 11.75 14.2548V14.25H4.25V14.2548C4.12999 14.13 3.99061 13.9906 3.8285 13.8285L0.75 10.75H15.25L12.1716 13.8284Z" fill="#1C274C"/>
<path fill-rule="evenodd" clip-rule="evenodd" d="M5 19V16.6569C5 16.2795 5 15.9893 4.98503 15.75H11.015C11 15.9893 11 16.2795 11 16.6569V19C11 19.9428 11 20.4142 10.7071 20.7071C10.4142 21 9.94281 21 9 21H7C6.05719 21 5.58579 21 5.29289 20.7071C5 20.4142 5 19.9428 5 19ZM8 17.25C8.41421 17.25 8.75 17.5858 8.75 18V19C8.75 19.4142 8.41421 19.75 8 19.75C7.58579 19.75 7.25 19.4142 7.25 19V18C7.25 17.5858 7.58579 17.25 8 17.25Z" fill="#1C274C"/>
</svg>
